<mxfile host="65bd71144e">
    <diagram id="RHTV1ylHpDpj0h1f0wAO" name="Page-1">
        <mxGraphModel dx="1124" dy="830" grid="1" gridSize="10" guides="1" tooltips="1" connect="1" arrows="1" fold="1" page="1" pageScale="1" pageWidth="1100" pageHeight="850" math="0" shadow="0">
            <root>
                <mxCell id="0"/>
                <mxCell id="1" parent="0"/>
                <mxCell id="5" value="" style="edgeStyle=none;html=1;fontFamily=Verdana;sketch=1;rounded=0;" parent="1" source="2" target="4" edge="1">
                    <mxGeometry relative="1" as="geometry"/>
                </mxCell>
                <mxCell id="40" style="edgeStyle=orthogonalEdgeStyle;sketch=1;html=1;entryX=0;entryY=0.5;entryDx=0;entryDy=0;rounded=0;" edge="1" parent="1" source="2" target="10">
                    <mxGeometry relative="1" as="geometry"/>
                </mxCell>
                <mxCell id="2" value="Game Plan" style="whiteSpace=wrap;html=1;fontFamily=Verdana;sketch=1;rounded=0;" parent="1" vertex="1">
                    <mxGeometry x="10" y="130" width="180" height="60" as="geometry"/>
                </mxCell>
                <mxCell id="3" value="TPM Toolbox" style="text;html=1;strokeColor=none;fillColor=none;align=center;verticalAlign=middle;whiteSpace=wrap;fontFamily=Verdana;sketch=1;rounded=0;" parent="1" vertex="1">
                    <mxGeometry x="40" y="20" width="1000" height="30" as="geometry"/>
                </mxCell>
                <mxCell id="9" value="" style="edgeStyle=none;html=1;fontFamily=Verdana;sketch=1;rounded=0;" parent="1" source="4" target="8" edge="1">
                    <mxGeometry relative="1" as="geometry"/>
                </mxCell>
                <mxCell id="4" value="Shape" style="whiteSpace=wrap;html=1;fontFamily=Verdana;sketch=1;rounded=0;" parent="1" vertex="1">
                    <mxGeometry x="250" y="130" width="140" height="60" as="geometry"/>
                </mxCell>
                <mxCell id="14" value="" style="edgeStyle=entityRelationEdgeStyle;html=1;fontFamily=Verdana;sketch=1;rounded=0;" parent="1" source="8" target="13" edge="1">
                    <mxGeometry relative="1" as="geometry"/>
                </mxCell>
                <mxCell id="19" value="" style="edgeStyle=entityRelationEdgeStyle;html=1;fontFamily=Verdana;sketch=1;rounded=0;" parent="1" source="8" target="18" edge="1">
                    <mxGeometry relative="1" as="geometry"/>
                </mxCell>
                <mxCell id="8" value="Bet" style="whiteSpace=wrap;html=1;fontFamily=Verdana;sketch=1;rounded=0;" parent="1" vertex="1">
                    <mxGeometry x="450" y="130" width="60" height="60" as="geometry"/>
                </mxCell>
                <mxCell id="10" value="Spikes" style="whiteSpace=wrap;html=1;fontFamily=Verdana;sketch=1;rounded=0;" parent="1" vertex="1">
                    <mxGeometry x="130" y="220" width="380" height="60" as="geometry"/>
                </mxCell>
                <mxCell id="13" value="Shape" style="whiteSpace=wrap;html=1;fontFamily=Verdana;sketch=1;rounded=0;" parent="1" vertex="1">
                    <mxGeometry x="570" y="130" width="140" height="60" as="geometry"/>
                </mxCell>
                <mxCell id="18" value="Build Sprints" style="whiteSpace=wrap;html=1;fontFamily=Verdana;sketch=1;rounded=0;" parent="1" vertex="1">
                    <mxGeometry x="570" y="220" width="140" height="60" as="geometry"/>
                </mxCell>
                <mxCell id="20" value="Bet" style="whiteSpace=wrap;html=1;fontFamily=Verdana;sketch=1;rounded=0;" parent="1" vertex="1">
                    <mxGeometry x="450" y="130" width="60" height="60" as="geometry"/>
                </mxCell>
                <mxCell id="28" style="edgeStyle=entityRelationEdgeStyle;html=1;fontFamily=Verdana;sketch=1;rounded=0;" parent="1" source="21" target="24" edge="1">
                    <mxGeometry relative="1" as="geometry"/>
                </mxCell>
                <mxCell id="31" value="" style="edgeStyle=entityRelationEdgeStyle;html=1;fontFamily=Verdana;sketch=1;rounded=0;" parent="1" source="21" target="22" edge="1">
                    <mxGeometry relative="1" as="geometry"/>
                </mxCell>
                <mxCell id="21" value="Shape" style="whiteSpace=wrap;html=1;fontFamily=Verdana;sketch=1;rounded=0;" parent="1" vertex="1">
                    <mxGeometry x="570" y="130" width="140" height="60" as="geometry"/>
                </mxCell>
                <mxCell id="22" value="Refresh" style="whiteSpace=wrap;html=1;fontFamily=Verdana;sketch=1;rounded=0;" parent="1" vertex="1">
                    <mxGeometry x="770" y="220" width="60" height="60" as="geometry"/>
                </mxCell>
                <mxCell id="29" style="edgeStyle=entityRelationEdgeStyle;html=1;entryX=0;entryY=0.5;entryDx=0;entryDy=0;fontFamily=Verdana;sketch=1;rounded=0;" parent="1" source="24" target="25" edge="1">
                    <mxGeometry relative="1" as="geometry"/>
                </mxCell>
                <mxCell id="24" value="Bet" style="whiteSpace=wrap;html=1;fontFamily=Verdana;sketch=1;rounded=0;" parent="1" vertex="1">
                    <mxGeometry x="770" y="130" width="60" height="60" as="geometry"/>
                </mxCell>
                <mxCell id="32" style="edgeStyle=entityRelationEdgeStyle;html=1;fontFamily=Verdana;sketch=1;rounded=0;" parent="1" source="25" edge="1">
                    <mxGeometry relative="1" as="geometry">
                        <mxPoint x="1080" y="160" as="targetPoint"/>
                    </mxGeometry>
                </mxCell>
                <mxCell id="25" value="Shape" style="whiteSpace=wrap;html=1;fontFamily=Verdana;sketch=1;rounded=0;" parent="1" vertex="1">
                    <mxGeometry x="890" y="130" width="140" height="60" as="geometry"/>
                </mxCell>
                <mxCell id="26" value="Build Sprints" style="whiteSpace=wrap;html=1;fontFamily=Verdana;sketch=1;rounded=0;" parent="1" vertex="1">
                    <mxGeometry x="890" y="220" width="140" height="60" as="geometry"/>
                </mxCell>
                <mxCell id="27" value="" style="edgeStyle=entityRelationEdgeStyle;html=1;fontFamily=Verdana;sketch=1;rounded=0;" parent="1" source="24" target="26" edge="1">
                    <mxGeometry relative="1" as="geometry"/>
                </mxCell>
                <mxCell id="34" value="6 weeks" style="text;html=1;align=center;verticalAlign=middle;resizable=0;points=[];autosize=1;strokeColor=none;fillColor=none;fontFamily=Verdana;sketch=1;rounded=0;" parent="1" vertex="1">
                    <mxGeometry x="290" y="90" width="60" height="20" as="geometry"/>
                </mxCell>
                <mxCell id="35" value="6 weeks" style="text;html=1;align=center;verticalAlign=middle;resizable=0;points=[];autosize=1;strokeColor=none;fillColor=none;fontFamily=Verdana;sketch=1;rounded=0;" parent="1" vertex="1">
                    <mxGeometry x="610" y="90" width="60" height="20" as="geometry"/>
                </mxCell>
                <mxCell id="36" value="6 weeks" style="text;html=1;align=center;verticalAlign=middle;resizable=0;points=[];autosize=1;strokeColor=none;fillColor=none;fontFamily=Verdana;sketch=1;rounded=0;" parent="1" vertex="1">
                    <mxGeometry x="930" y="90" width="60" height="20" as="geometry"/>
                </mxCell>
                <mxCell id="37" value="2 weeks" style="text;html=1;align=center;verticalAlign=middle;resizable=0;points=[];autosize=1;strokeColor=none;fillColor=none;fontFamily=Verdana;sketch=1;rounded=0;" parent="1" vertex="1">
                    <mxGeometry x="450" y="90" width="60" height="20" as="geometry"/>
                </mxCell>
                <mxCell id="38" value="2 weeks" style="text;html=1;align=center;verticalAlign=middle;resizable=0;points=[];autosize=1;strokeColor=none;fillColor=none;fontFamily=Verdana;sketch=1;rounded=0;" parent="1" vertex="1">
                    <mxGeometry x="770" y="90" width="60" height="20" as="geometry"/>
                </mxCell>
            </root>
        </mxGraphModel>
    </diagram>
</mxfile>